<?xml version="1.0" encoding="UTF-8" standalone="no"?>
<!-- Created with Inkscape (http://www.inkscape.org/) -->

<svg
   width="256"
   height="55"
   viewBox="0 0 67.733332 14.552084"
   version="1.1"
   id="svg5"
   inkscape:version="1.1 (1:1.1+202105261517+ce6663b3b7)"
   sodipodi:docname="footer_logo.svg"
   xmlns:inkscape="http://www.inkscape.org/namespaces/inkscape"
   xmlns:sodipodi="http://sodipodi.sourceforge.net/DTD/sodipodi-0.dtd"
   xmlns="http://www.w3.org/2000/svg"
   xmlns:svg="http://www.w3.org/2000/svg">
  <sodipodi:namedview
     id="namedview7"
     pagecolor="#ffffff"
     bordercolor="#666666"
     borderopacity="1.0"
     inkscape:pageshadow="2"
     inkscape:pageopacity="0.0"
     inkscape:pagecheckerboard="0"
     inkscape:document-units="px"
     showgrid="false"
     units="px"
     inkscape:showpageshadow="false"
     inkscape:zoom="3.6484375"
     inkscape:cx="110.45824"
     inkscape:cy="14.389722"
     inkscape:window-width="2528"
     inkscape:window-height="1048"
     inkscape:window-x="32"
     inkscape:window-y="0"
     inkscape:window-maximized="1"
     inkscape:current-layer="layer1" />
  <defs
     id="defs2" />
  <g
     inkscape:label="Livello 1"
     inkscape:groupmode="layer"
     id="layer1">
    <g
       id="g64104"
       transform="matrix(0.56274783,0,0,0.56274783,11.99141,2.9896172)">
      <path
         style="color:#000000;fill:#e30000;stroke-width:1.64749;stroke-linecap:round;stroke-linejoin:bevel;-inkscape-stroke:none"
         d="M 9.7763062,6.1880703 H 14.406176 V 10.81794 H 9.7763062 Z"
         id="rect51497" />
      <g
         aria-label="CGIL"
         id="text54217"
         style="font-size:1.92102px;font-family:Dunkin;-inkscape-font-specification:Dunkin;stroke-width:0.144076">
        <path
           style="color:#000000;-inkscape-font-specification:'Futura XBlk BT';fill:#000000;-inkscape-stroke:none"
           d="m 10.834328,4.9937377 q -0.06754,-0.064722 -0.137885,-0.096614 -0.07035,-0.031892 -0.148204,-0.031892 -0.121002,0 -0.195104,0.07504 -0.07316,0.074102 -0.07316,0.1979176 0,0.1210018 0.07035,0.1932276 0.07035,0.072226 0.188538,0.072226 0.07129,0 0.144452,-0.030016 0.0741,-0.030954 0.161335,-0.097552 l -0.01595,0.516837 q -0.08067,0.03283 -0.161335,0.048776 -0.08067,0.016884 -0.161336,0.016884 -0.100366,0 -0.193228,-0.022512 Q 10.21994,5.813548 10.1449,5.7722761 9.962928,5.6672203 9.8691282,5.5068227 9.7762664,5.346425 9.7762664,5.1381894 q 0,-0.1538317 0.052528,-0.2851514 0.053466,-0.1313197 0.1547697,-0.2316855 0.1022419,-0.1013038 0.2363759,-0.1528937 0.135071,-0.052528 0.291717,-0.052528 0.08348,0 0.16415,0.017822 0.0816,0.016884 0.158521,0.05159 z"
           id="path63867" />
        <path
           style="color:#000000;-inkscape-font-specification:'Futura XBlk BT';fill:#000000;-inkscape-stroke:none"
           d="M 11.926158,5.330479 H 11.711356 V 5.0078077 h 0.758841 q 0.0019,0.04221 0.0028,0.062846 9.38e-4,0.020636 9.38e-4,0.036582 0,0.1181877 -0.02251,0.2157395 -0.02251,0.097552 -0.06566,0.1725917 -0.105056,0.1763436 -0.271081,0.2701434 -0.166026,0.092862 -0.377076,0.092862 -0.155707,0 -0.289841,-0.05159 -0.133196,-0.052528 -0.236376,-0.1538316 -0.102241,-0.1013038 -0.154769,-0.2316856 -0.05253,-0.1303817 -0.05253,-0.2832754 0,-0.1538317 0.05253,-0.2842134 0.05347,-0.1313197 0.154769,-0.2307475 0.102242,-0.1003658 0.236376,-0.1528937 0.134134,-0.052528 0.289841,-0.052528 0.21105,0 0.3752,0.092862 0.164149,0.091924 0.268267,0.2701435 l -0.439921,0.1632116 q -0.03471,-0.057218 -0.08348,-0.085358 -0.04878,-0.02814 -0.111622,-0.02814 -0.109745,0 -0.175405,0.083482 -0.06472,0.083482 -0.06472,0.2241815 0,0.1453897 0.06566,0.2260576 0.06566,0.07973 0.185723,0.07973 0.07129,0 0.115374,-0.030016 0.04502,-0.030016 0.05347,-0.083482 z"
           id="path63869" />
        <path
           style="color:#000000;-inkscape-font-specification:'Futura XBlk BT';fill:#000000;-inkscape-stroke:none"
           d="M 12.663425,5.82199 V 4.4487609 h 0.501829 V 5.82199 Z"
           id="path63871" />
        <path
           style="color:#000000;-inkscape-font-specification:'Futura XBlk BT';fill:#000000;-inkscape-stroke:none"
           d="M 13.431645,5.82199 V 4.4487609 h 0.494325 v 0.92768 h 0.480255 V 5.82199 Z"
           id="path63873" />
      </g>
      <g
         aria-label="NCdL CGIL Trieste"
         id="text60437"
         style="font-size:5.96735px;font-family:Dunkin;-inkscape-font-specification:Dunkin;stroke-width:0.447552"
         transform="translate(2.1166667)">
        <path
           style="color:#000000;-inkscape-font-specification:'Futura Hv BT';fill:#000000;-inkscape-stroke:none"
           d="M 14.785206,10.70434 V 6.4386171 h 0.946967 L 17.62028,8.921128 q 0.08159,0.1048948 0.177739,0.297202 0.09907,0.1893934 0.203962,0.4487167 -0.03205,-0.1893934 -0.04662,-0.3758731 -0.01457,-0.1864797 -0.01457,-0.4661992 V 6.4386171 h 0.87121 V 10.70434 h -0.89452 L 15.976928,8.1752092 Q 15.895343,8.0703144 15.79919,7.880921 15.703036,7.6886138 15.595227,7.423463 q 0.03205,0.1835659 0.04662,0.3729594 0.01457,0.1864796 0.01457,0.4720267 V 10.70434 Z"
           id="path63918" />
        <path
           style="color:#000000;-inkscape-font-specification:'Futura Hv BT';fill:#000000;-inkscape-stroke:none"
           d="M 23.197188,7.548754 Q 22.920382,7.3010857 22.629008,7.1874496 22.337633,7.0708998 22.005466,7.0708998 q -0.681816,0 -1.086826,0.4079243 -0.405011,0.4079243 -0.405011,1.0955682 0,0.6730751 0.375873,1.0693445 0.375873,0.3933552 1.025638,0.3933552 0.370046,0 0.687644,-0.1223769 0.317598,-0.1252911 0.588577,-0.3729594 l -0.0058,0.9353123 q -0.291374,0.171911 -0.611886,0.256409 -0.317598,0.0845 -0.670162,0.0845 -1.01981,0 -1.675403,-0.632283 -0.652679,-0.6351961 -0.652679,-1.6113007 0,-0.9731909 0.655593,-1.6054736 0.655592,-0.6322827 1.689972,-0.6322827 0.346736,0 0.670161,0.072844 0.323426,0.072844 0.63811,0.2243583 z"
           id="path63920" />
        <path
           style="color:#000000;-inkscape-font-specification:'Futura Hv BT';fill:#000000;-inkscape-stroke:none"
           d="m 26.078882,9.2707774 q 0,-0.3846144 -0.195221,-0.6089727 -0.192307,-0.2243584 -0.52156,-0.2243584 -0.337994,0 -0.533215,0.2214446 -0.192308,0.2185309 -0.192308,0.606059 0,0.3875281 0.189394,0.606059 0.192307,0.2185311 0.530302,0.2185311 0.343821,0 0.533215,-0.2156174 0.189393,-0.2156171 0.189393,-0.6031452 z m 0.757574,1.4335626 h -0.804194 l 0.01166,-0.410838 q -0.168997,0.270978 -0.407924,0.399183 -0.236013,0.125291 -0.576921,0.125291 -0.568181,0 -0.91783,-0.422493 -0.346736,-0.422493 -0.346736,-1.1159644 0,-0.7255225 0.340908,-1.1305331 0.343822,-0.4050106 0.952795,-0.4050106 0.311771,0 0.547784,0.1427735 0.236013,0.1427736 0.442889,0.4516305 -0.01457,-0.1048948 -0.02331,-0.2301858 -0.0058,-0.1282048 -0.0058,-0.2913745 V 6.188035 h 0.786711 z"
           id="path63922" />
        <path
           style="color:#000000;-inkscape-font-specification:'Futura Hv BT';fill:#000000;-inkscape-stroke:none"
           d="M 27.722235,10.70434 V 6.4386171 h 0.912002 V 9.9292838 H 30.09111 V 10.70434 Z"
           id="path63924" />
        <path
           style="color:#000000;-inkscape-font-specification:'Futura Hv BT';fill:#000000;-inkscape-stroke:none"
           d="M 35.933168,7.548754 Q 35.656362,7.3010857 35.364987,7.1874496 35.073613,7.0708998 34.741446,7.0708998 q -0.681816,0 -1.086827,0.4079243 -0.40501,0.4079243 -0.40501,1.0955682 0,0.6730751 0.375873,1.0693445 0.375873,0.3933552 1.025638,0.3933552 0.370046,0 0.687644,-0.1223769 0.317598,-0.1252911 0.588576,-0.3729594 l -0.0058,0.9353123 q -0.291375,0.171911 -0.611887,0.256409 -0.317598,0.0845 -0.670161,0.0845 -1.019811,0 -1.675403,-0.632283 -0.652679,-0.6351961 -0.652679,-1.6113007 0,-0.9731909 0.655592,-1.6054736 0.655593,-0.6322827 1.689972,-0.6322827 0.346736,0 0.670162,0.072844 0.323426,0.072844 0.63811,0.2243583 z"
           id="path63926" />
        <path
           style="color:#000000;-inkscape-font-specification:'Futura Hv BT';fill:#000000;-inkscape-stroke:none"
           d="m 38.899362,8.4549287 h 1.943468 q 0.0058,0.037879 0.0058,0.081585 0.0029,0.043706 0.0029,0.1340323 0,0.9586221 -0.547784,1.553026 -0.547784,0.594404 -1.41608,0.594404 -0.993587,0 -1.637525,-0.632283 -0.643937,-0.635196 -0.643937,-1.6113006 0,-0.9673634 0.646851,-1.5996461 0.646851,-0.6322827 1.634611,-0.6322827 0.52156,0 0.955708,0.2185309 0.434148,0.2185309 0.775057,0.6526789 l -0.61476,0.4545442 Q 39.773485,7.3826705 39.51999,7.2573795 39.266494,7.1291747 38.934327,7.1291747 q -0.632283,0 -1.01107,0.3933556 -0.378787,0.3933556 -0.378787,1.051862 0,0.6468514 0.378787,1.0460345 0.381701,0.3962692 0.993587,0.3962692 0.448717,0 0.728437,-0.2097895 Q 39.925,9.5942031 39.925,9.2532949 v -0.04662 h -1.025638 z"
           id="path63928" />
        <path
           style="color:#000000;-inkscape-font-specification:'Futura Hv BT';fill:#000000;-inkscape-stroke:none"
           d="M 41.591662,10.70434 V 6.4386171 h 0.912002 V 10.70434 Z"
           id="path63930" />
        <path
           style="color:#000000;-inkscape-font-specification:'Futura Hv BT';fill:#000000;-inkscape-stroke:none"
           d="M 43.476855,10.70434 V 6.4386171 h 0.912002 V 9.9292838 H 45.84573 V 10.70434 Z"
           id="path63932" />
        <path
           style="color:#000000;-inkscape-font-specification:'Futura Hv BT';fill:#000000;-inkscape-stroke:none"
           d="M 49.846302,7.2136733 V 10.70434 H 48.931386 V 7.2136733 h -1.04312 V 6.4386171 h 3.006985 v 0.7750562 z"
           id="path63934" />
        <path
           style="color:#000000;-inkscape-font-specification:'Futura Hv BT';fill:#000000;-inkscape-stroke:none"
           d="m 51.728582,8.5802198 q 0.125291,-0.4166656 0.35839,-0.6235415 0.236014,-0.2068759 0.582749,-0.2068759 0.07867,0 0.259324,0.029138 0.03496,0.00583 0.05245,0.00874 l -0.125291,0.891606 q -0.09324,-0.037879 -0.189393,-0.055361 -0.09324,-0.020396 -0.198135,-0.020396 -0.378787,0 -0.54487,0.195221 -0.166084,0.1923072 -0.166084,0.6468514 V 10.70434 h -0.83042 V 7.845956 h 0.818762 z"
           id="path63936" />
        <path
           style="color:#000000;-inkscape-font-specification:'Futura Hv BT';fill:#000000;-inkscape-stroke:none"
           d="m 53.316571,6.6717167 q 0,-0.1981346 0.142773,-0.3409081 0.142774,-0.1427736 0.340908,-0.1427736 0.201049,0 0.343822,0.1427736 0.145688,0.1398597 0.145688,0.3409081 0,0.2010484 -0.145688,0.343822 -0.142773,0.1427735 -0.343822,0.1427735 -0.198134,0 -0.340908,-0.1456873 -0.142773,-0.1456872 -0.142773,-0.3409082 z m 0.07284,4.0326233 V 7.845956 h 0.827504 v 2.858384 z"
           id="path63938" />
        <path
           style="color:#000000;-inkscape-font-specification:'Futura Hv BT';fill:#000000;-inkscape-stroke:none"
           d="M 57.028684,8.9794029 Q 56.993719,8.7084246 56.83055,8.5714786 56.670294,8.4316188 56.390574,8.4316188 q -0.279719,0 -0.448716,0.1398598 -0.166084,0.136946 -0.212704,0.4079243 z M 57.850361,9.480567 H 55.70293 q 0.04953,0.308857 0.224359,0.4632855 0.174824,0.1515145 0.47494,0.1515145 0.227272,0 0.390442,-0.08741 0.166084,-0.087413 0.276806,-0.2651509 l 0.670161,0.3350809 q -0.233099,0.375873 -0.565266,0.559439 -0.332167,0.180652 -0.789625,0.180652 -0.693472,0 -1.098482,-0.413752 -0.405011,-0.4137516 -0.405011,-1.1130504 0,-0.6730751 0.422493,-1.1072231 0.425407,-0.4341481 1.086827,-0.4341481 0.681817,0 1.078086,0.4079243 0.396269,0.4050106 0.396269,1.1072232 0,0.037879 -0.0029,0.084499 -0.0029,0.043706 -0.01165,0.1311185 z"
           id="path63940" />
        <path
           style="color:#000000;-inkscape-font-specification:'Futura Hv BT';fill:#000000;-inkscape-stroke:none"
           d="m 58.200008,10.203176 0.63811,-0.3292534 q 0.03205,0.1660834 0.171911,0.2622374 0.13986,0.09615 0.346735,0.09615 0.203963,0 0.320512,-0.07284 0.11655,-0.07576 0.11655,-0.2068763 0,-0.2068759 -0.413752,-0.3467356 Q 59.25187,9.5621519 59.176112,9.5330144 58.672034,9.343621 58.476813,9.1513138 58.284506,8.9590067 58.284506,8.6763734 q 0,-0.4195793 0.329253,-0.6789026 0.329254,-0.2593234 0.868296,-0.2593234 0.384615,0 0.664334,0.1544285 0.282634,0.1544285 0.410838,0.4370618 l -0.608972,0.3030295 q -0.04953,-0.160256 -0.171911,-0.2418408 -0.122378,-0.084499 -0.305944,-0.084499 -0.183565,0 -0.297202,0.075757 -0.113636,0.075757 -0.113636,0.1981347 0,0.2127034 0.565267,0.3962693 0.06702,0.020396 0.101981,0.032051 0.469113,0.1544285 0.667248,0.3613044 0.198134,0.2039622 0.198134,0.5215604 0,0.4254068 -0.329253,0.6759888 -0.329253,0.250582 -0.888692,0.250582 -0.442889,0 -0.757574,-0.16317 -0.311771,-0.166083 -0.416665,-0.451629 z"
           id="path63942" />
        <path
           style="color:#000000;-inkscape-font-specification:'Futura Hv BT';fill:#000000;-inkscape-stroke:none"
           d="M 61.303148,10.70434 V 8.4957212 H 60.903964 V 7.845956 h 0.399184 V 6.8960751 h 0.830417 V 7.845956 h 0.399183 V 8.4957212 H 62.133565 V 10.70434 Z"
           id="path63944" />
        <path
           style="color:#000000;-inkscape-font-specification:'Futura Hv BT';fill:#000000;-inkscape-stroke:none"
           d="M 65.015261,8.9794029 Q 64.980296,8.7084246 64.817126,8.5714786 64.65687,8.4316188 64.37715,8.4316188 q -0.279719,0 -0.448716,0.1398598 -0.166084,0.136946 -0.212704,0.4079243 z m 0.821676,0.5011641 h -2.147431 q 0.04953,0.308857 0.224359,0.4632855 0.174825,0.1515145 0.47494,0.1515145 0.227272,0 0.390442,-0.08741 0.166084,-0.087413 0.276806,-0.2651509 l 0.670161,0.3350809 q -0.233099,0.375873 -0.565266,0.559439 -0.332167,0.180652 -0.789625,0.180652 -0.693471,0 -1.098482,-0.413752 -0.405011,-0.4137516 -0.405011,-1.1130504 0,-0.6730751 0.422493,-1.1072231 0.425407,-0.4341481 1.086827,-0.4341481 0.681817,0 1.078086,0.4079243 0.396269,0.4050106 0.396269,1.1072232 0,0.037879 -0.0029,0.084499 -0.0029,0.043706 -0.01165,0.1311185 z"
           id="path63946" />
      </g>
    </g>
  </g>
</svg>
