<?xml version="1.0" encoding="UTF-8" standalone="no"?>
<svg
   inkscape:export-ydpi="96"
   inkscape:export-xdpi="96"
   inkscape:export-filename="/run/user/1000/gvfs/dav:host=cloud.cgil-fvg.net,ssl=true,user=davo%40fvg.cgil.it,prefix=%2Fremote.php%2Fwebdav/Loghi/logo_davo_istantmessaging_v2_27042020.svg.png"
   sodipodi:docname="logo_davosky_connection.svg"
   inkscape:version="1.1 (1:1.1+202105261517+ce6663b3b7)"
   id="svg8"
   version="1.1"
   viewBox="0 0 135.46666 36.512501"
   height="138"
   width="512"
   xmlns:inkscape="http://www.inkscape.org/namespaces/inkscape"
   xmlns:sodipodi="http://sodipodi.sourceforge.net/DTD/sodipodi-0.dtd"
   xmlns="http://www.w3.org/2000/svg"
   xmlns:svg="http://www.w3.org/2000/svg"
   xmlns:rdf="http://www.w3.org/1999/02/22-rdf-syntax-ns#"
   xmlns:cc="http://creativecommons.org/ns#"
   xmlns:dc="http://purl.org/dc/elements/1.1/">
  <defs
     id="defs2" />
  <sodipodi:namedview
     inkscape:document-rotation="0"
     inkscape:measure-end="0,0"
     inkscape:measure-start="550.341,241.548"
     inkscape:window-maximized="1"
     inkscape:window-y="0"
     inkscape:window-x="28"
     inkscape:window-height="1056"
     inkscape:window-width="2532"
     inkscape:showpageshadow="false"
     units="px"
     showgrid="false"
     inkscape:current-layer="layer1"
     inkscape:document-units="px"
     inkscape:cy="209.44444"
     inkscape:cx="141.11111"
     inkscape:zoom="0.9"
     inkscape:pageshadow="2"
     inkscape:pageopacity="0.0"
     borderopacity="1.0"
     bordercolor="#666666"
     pagecolor="#ffffff"
     id="base"
     inkscape:pagecheckerboard="0" />
  <metadata
     id="metadata5">
    <rdf:RDF>
      <cc:Work
         rdf:about="">
        <dc:format>image/svg+xml</dc:format>
        <dc:type
           rdf:resource="http://purl.org/dc/dcmitype/StillImage" />
      </cc:Work>
    </rdf:RDF>
  </metadata>
  <g
     transform="translate(0,-161.53331)"
     id="layer1"
     inkscape:groupmode="layer"
     inkscape:label="Livello 1">
    <g
       aria-label="by Davo Davosky"
       id="text3969"
       style="font-size:1.22231px;font-family:Dunkin;-inkscape-font-specification:Dunkin;fill:#3c629e;stroke-width:0.2151" />
    <g
       id="g13266"
       transform="matrix(1.9991351,0,0,1.9991351,-1.057877,-161.65017)">
      <g
         style="font-style:normal;font-weight:normal;font-size:17.7836px;line-height:1.25;font-family:sans-serif;fill:#3c629e;fill-opacity:1;stroke:none;stroke-width:0.444589"
         id="text40"
         aria-label="The"
         transform="matrix(0.14832108,0,0,0.14832108,-0.39675696,136.78865)">
        <path
           id="path865"
           style="font-style:normal;font-variant:normal;font-weight:normal;font-stretch:normal;font-size:17.7836px;font-family:'Lobster Two';-inkscape-font-specification:'Lobster Two, Normal';font-variant-ligatures:normal;font-variant-caps:normal;font-variant-numeric:normal;font-variant-east-asian:normal;fill:#3c629e;fill-opacity:1;stroke-width:0.444589"
           d="m 211.54146,186.66967 c 0,-2.79202 1.58274,-3.55672 3.57451,-3.62785 l -2.54306,11.80831 h 2.56084 l 2.50749,-11.64826 c 0.81804,0.1067 1.61831,0.24897 2.34743,0.30232 l -2.43635,11.34594 h 2.56084 c 0.4268,-2.36522 0.78248,-4.26807 1.0848,-5.81524 0.26675,-0.83583 0.72912,-1.52939 1.35155,-1.52939 0.42681,0 0.64021,0.32011 0.64021,0.90697 0,1.13815 -0.80026,3.32553 -0.80026,4.53481 0,1.01367 0.55129,2.00955 2.09846,2.00955 0.94253,0 2.31187,-0.37346 3.30775,-3.28997 h -0.74691 c -0.39124,0.92475 -0.71134,1.56496 -1.49382,1.56496 -0.53351,0 -0.71134,-0.30232 -0.71134,-0.74691 0,-0.99588 0.85361,-3.1477 0.85361,-4.58817 0,-1.42269 -0.83583,-2.00955 -1.97398,-2.00955 -0.56908,0 -1.35156,0.16006 -2.11625,1.03145 0.81805,-4.05466 1.06702,-4.57038 1.49382,-5.35286 -0.49794,0.3201 -1.28042,0.42681 -2.15181,0.42681 -1.81393,0 -3.98353,-0.46238 -4.80157,-0.46238 -4.39255,0 -6.25983,2.25852 -6.25983,4.62374 0,1.28042 0.67577,1.72501 1.90284,1.72501 -0.0178,-0.16006 -0.24897,-0.30232 -0.24897,-1.20929 z" />
        <path
           id="path867"
           style="font-style:normal;font-variant:normal;font-weight:normal;font-stretch:normal;font-size:17.7836px;font-family:'Lobster Two';-inkscape-font-specification:'Lobster Two, Normal';font-variant-ligatures:normal;font-variant-caps:normal;font-variant-numeric:normal;font-variant-east-asian:normal;fill:#3c629e;fill-opacity:1;stroke-width:0.444589"
           d="m 229.46732,191.25784 c 2.13403,-0.12448 4.09023,-1.65387 4.09023,-3.6812 0,-0.88918 -0.37346,-1.70723 -1.9562,-1.70723 -3.64564,0 -4.80157,4.2325 -4.80157,6.25983 0,2.00954 1.10258,2.82759 2.75646,2.82759 1.42269,0 2.70311,-0.60464 3.07656,-2.63197 -0.56907,0.49794 -1.42269,0.94253 -2.09846,0.94253 -0.88918,0 -1.10259,-0.74691 -1.10259,-1.45826 0,-0.19562 0.0178,-0.37345 0.0356,-0.55129 z m 2.72089,-3.71677 c 0,1.45825 -1.20928,2.79202 -2.5964,2.86316 0.37345,-1.67166 1.26263,-3.59229 2.15181,-3.59229 0.33789,0 0.44459,0.28454 0.44459,0.72913 z" />
      </g>
      <path
         inkscape:connector-curvature="0"
         id="path4564"
         d="m 9.6494184,161.67337 c -5.0335959,3e-4 -9.12025221,4.08702 -9.12025113,9.12067 1.07e-6,5.03379 4.08688423,9.12004 9.12067253,9.12004 5.0337892,0 9.1200402,-4.08625 9.1200422,-9.12004 0,-3.3578 -1.818268,-6.29423 -4.523087,-7.87735 -1.281502,-0.75006 -4.8316707,-1.57441 -8.0837682,1.34736 v 0.55486 c 3.6803346,-3.04596 6.5515072,-2.14444 7.7391182,-1.46408 2.577462,1.47659 4.313299,4.25304 4.313299,7.43921 -1e-6,4.73429 -3.831308,8.56645 -8.5656042,8.56645 -4.7342943,0 -8.5662341,-3.83216 -8.5662352,-8.56645 -1.1e-6,-4.73416 3.8317118,-8.56601 8.5658138,-8.56623 z m 0,3.48407 a 5.6363891,5.6363891 0 0 0 -5.5511266,4.69699 h 4.1155415 a 1.717036,1.717036 0 0 1 1.4357964,-0.77773 1.717036,1.717036 0 0 1 1.4366403,0.77773 h 4.119974 a 5.6363891,5.6363891 0 0 0 -5.5568256,-4.69699 z m -4.3707048,5.09588 v 1.0806 h 2.7432718 a 1.717036,1.717036 0 0 1 -0.089486,-0.5403 1.717036,1.717036 0 0 1 0.088853,-0.5403 z m 5.9983474,0 a 1.717036,1.717036 0 0 1 0.0897,0.5403 1.717036,1.717036 0 0 1 -0.08885,0.5403 h 2.742639 v -1.0806 z m -7.1842565,1.47991 a 5.6363891,5.6363891 0 0 0 5.5566139,4.69678 5.6363891,5.6363891 0 0 0 5.5513376,-4.69678 h -4.115541 a 1.717036,1.717036 0 0 1 -1.4355853,0.77752 1.717036,1.717036 0 0 1 -1.4364292,-0.77752 z"
         style="color:#000000;font-style:normal;font-variant:normal;font-weight:normal;font-stretch:normal;font-size:medium;line-height:normal;font-family:sans-serif;font-variant-ligatures:normal;font-variant-position:normal;font-variant-caps:normal;font-variant-numeric:normal;font-variant-alternates:normal;font-feature-settings:normal;text-indent:0;text-align:start;text-decoration:none;text-decoration-line:none;text-decoration-style:solid;text-decoration-color:#000000;letter-spacing:normal;word-spacing:normal;text-transform:none;writing-mode:lr-tb;direction:ltr;text-orientation:mixed;dominant-baseline:auto;baseline-shift:baseline;text-anchor:start;white-space:normal;shape-padding:0;clip-rule:nonzero;display:inline;overflow:visible;visibility:visible;isolation:auto;mix-blend-mode:normal;color-interpolation:sRGB;color-interpolation-filters:linearRGB;solid-color:#000000;solid-opacity:1;vector-effect:none;fill:#3c629e;fill-opacity:1;fill-rule:nonzero;stroke:none;stroke-width:0.554166;stroke-linecap:round;stroke-linejoin:round;stroke-miterlimit:4;stroke-dasharray:none;stroke-dashoffset:0;stroke-opacity:1;color-rendering:auto;image-rendering:auto;shape-rendering:auto;text-rendering:auto;enable-background:accumulate" />
      <path
         id="path870"
         style="font-style:normal;font-variant:normal;font-weight:normal;font-stretch:normal;font-size:93.855px;line-height:1.25;font-family:'Lobster Two';-inkscape-font-specification:'Lobster Two';fill:#3c629e;fill-opacity:1;stroke:none;stroke-width:0.348016"
         d="m 24.469577,165.29266 -1.893212,8.85355 h 2.004577 l 0.111366,-0.55682 c 0.598588,0.51506 1.169336,0.73779 1.698322,0.73779 2.06026,0 3.856026,-3.46625 3.856026,-6.52879 0,-2.29692 -1.016208,-4.09268 -3.772502,-4.09268 -2.742374,0 -5.122808,1.76792 -5.122808,3.67505 0,0.94661 0.570747,1.29463 1.489511,1.29463 -0.04176,-0.12529 -0.194889,-0.29234 -0.194889,-0.94661 0,-2.11594 1.62872,-3.38272 3.535851,-3.38272 1.44775,0 2.143784,0.72387 2.143784,2.81197 0,2.53357 -1.016208,5.94413 -2.672769,5.94413 -0.264492,0 -0.528986,-0.0835 -0.793478,-0.27841 l 1.670481,-7.8095 z" />
      <path
         id="path872"
         style="font-style:normal;font-variant:normal;font-weight:normal;font-stretch:normal;font-size:93.855px;line-height:1.25;font-family:'Lobster Two';-inkscape-font-specification:'Lobster Two';fill:#3c629e;fill-opacity:1;stroke:none;stroke-width:0.348016"
         d="m 35.32768,167.18588 -0.139207,0.65427 c -0.09745,-0.64035 -0.682114,-0.72388 -1.141495,-0.72388 -2.422198,0 -3.577615,2.99295 -3.577615,4.87224 0,1.65656 0.904845,2.24123 1.851451,2.24123 0.988367,0 1.65656,-0.65427 2.07418,-1.29462 0.111365,0.79347 0.612509,1.21109 1.364226,1.21109 0.751716,0 2.004577,-0.22273 2.798056,-2.4918 h -0.584668 c -0.208811,0.69604 -0.584668,1.22502 -1.127575,1.22502 -0.389779,0 -0.570747,-0.12528 -0.570747,-0.51506 0,-0.12529 0.01393,-0.2645 0.05568,-0.44546 l 1.016209,-4.73303 z m -0.849162,0.79347 c 0.431541,0 0.556827,0.36194 0.570748,0.52899 l -0.668192,3.14607 c -0.167048,0.8074 -0.751717,1.22502 -1.155417,1.22502 -0.250572,0 -0.696034,-0.0139 -0.696034,-1.08581 0,-1.30854 0.765638,-3.81427 1.948895,-3.81427 z" />
      <path
         id="path874"
         style="font-style:normal;font-variant:normal;font-weight:normal;font-stretch:normal;font-size:93.855px;line-height:1.25;font-family:'Lobster Two';-inkscape-font-specification:'Lobster Two';fill:#3c629e;fill-opacity:1;stroke:none;stroke-width:0.348016"
         d="m 42.649941,166.90746 c -0.584668,0 -0.863081,0.32018 -0.863081,0.75172 0,0.30625 0.167048,0.70995 0.501144,0.70995 0.111365,0 0.4037,-0.0418 0.445461,-0.1392 0,1.53127 -1.044049,4.6495 -2.408276,4.6495 -0.334096,0 -0.473303,-0.18097 -0.473303,-0.45938 0,-0.12529 0.02784,-0.30626 0.0696,-0.50114 l 1.002289,-4.73303 h -2.004577 l -1.002289,4.73303 c -0.05568,0.26449 -0.0696,0.51506 -0.0696,0.66819 0,1.09973 0.654271,1.64264 1.712243,1.64264 2.839817,0 3.967393,-3.88387 3.967393,-6.11118 0,-0.61251 -0.208811,-1.2111 -0.877004,-1.2111 z" />
      <path
         id="path876"
         style="font-style:normal;font-variant:normal;font-weight:normal;font-stretch:normal;font-size:93.855px;line-height:1.25;font-family:'Lobster Two';-inkscape-font-specification:'Lobster Two';fill:#3c629e;fill-opacity:1;stroke:none;stroke-width:0.348016"
         d="m 51.364279,167.03275 c -0.779557,1.3503 -1.531274,2.14378 -2.227308,2.21339 -0.02784,-1.41991 -0.612509,-2.12987 -1.781846,-2.12987 -2.867659,0 -3.814265,3.31312 -3.814265,4.914 0,1.58696 0.932685,2.19947 2.227308,2.19947 1.726164,0 3.132151,-1.64264 3.340962,-4.27365 0.849161,-0.26449 1.628718,-0.89092 2.296911,-1.90713 0.153128,2.57532 0.306255,3.00686 0.306255,3.78642 0,0.97445 -0.264492,1.29462 -0.877002,1.29462 -0.528986,0 -0.807399,-0.38977 -0.807399,-1.04405 0.0696,0.13921 0.23665,0.18097 0.375857,0.18097 0.361938,0 0.668193,-0.29233 0.668193,-0.62643 0,-0.4037 -0.250573,-0.58467 -0.723876,-0.58467 -0.487222,0 -1.002288,0.50115 -1.002288,1.32247 0,0.84916 0.278413,1.85145 1.934974,1.85145 0.751717,0 1.573036,-0.25058 2.046339,-0.94661 0.59859,-0.37586 1.280704,-0.877 1.934974,-1.62872 H 54.6774 c -0.264492,0.20881 -0.61251,0.47331 -0.988367,0.68212 0.02784,-0.15313 0.04176,-0.3341 0.04176,-0.51507 0,-0.91876 -0.139207,-1.46167 -0.306255,-5.06712 z m -5.039284,5.88844 c -0.528985,0 -0.709955,-0.20881 -0.709955,-1.12757 0,-1.36423 0.863082,-3.84211 1.851451,-3.84211 0.348016,0 0.501144,0.19489 0.528985,0.75172 -0.250572,0.0974 -0.431542,0.34802 -0.431542,0.73779 0,0.36194 0.125287,0.57075 0.375859,0.64036 -0.22273,1.62872 -0.932686,2.83981 -1.614798,2.83981 z" />
      <path
         id="path878"
         style="font-style:normal;font-variant:normal;font-weight:normal;font-stretch:normal;font-size:93.855px;line-height:1.25;font-family:'Lobster Two';-inkscape-font-specification:'Lobster Two';fill:#3c629e;fill-opacity:1;stroke:none;stroke-width:0.348016"
         d="m 59.869801,167.18588 -2.68669,2.11594 1.04405,-4.90008 -2.06026,0.27841 -2.018497,9.46606 h 2.004577 l 0.723875,-3.4384 c 0.389779,-0.32018 0.709954,-0.51507 1.03013,-0.51507 0.361938,0 0.501145,0.26449 0.501145,0.66819 0,0.58467 -0.250573,1.1415 -0.250573,1.78185 0,1.01621 0.61251,1.58696 1.754006,1.58696 0.640351,0 1.767925,-0.23665 2.561404,-2.57533 h -0.584669 c -0.306254,0.72388 -0.556827,1.22502 -1.169336,1.22502 -0.431542,0 -0.542907,-0.23665 -0.542907,-0.51506 0,-0.54291 0.278413,-1.07189 0.278413,-1.67048 0,-0.89093 -0.501144,-1.62872 -1.531274,-1.62872 -0.153127,0 -0.306255,0.0278 -0.459382,0.0557 l 2.784135,-1.93497 z" />
      <path
         id="path880"
         style="font-style:normal;font-variant:normal;font-weight:normal;font-stretch:normal;font-size:93.855px;line-height:1.25;font-family:'Lobster Two';-inkscape-font-specification:'Lobster Two';fill:#3c629e;fill-opacity:1;stroke:none;stroke-width:0.348016"
         d="m 62.834899,167.18588 -0.946606,4.46853 c -0.0696,0.3341 -0.111365,0.64035 -0.111365,0.90485 0,1.16933 0.654271,1.67048 1.489512,1.67048 0.473302,0 1.099734,-0.12529 1.698322,-0.8074 l -0.139207,0.61251 c -1.322463,0.38978 -2.408276,0.79348 -2.408276,2.0881 0,0.90484 0.793478,1.50343 1.64264,1.50343 0.918764,0 2.115942,-0.37586 2.533563,-2.36651 l 1.698322,-8.07399 h -2.018499 l -0.946606,4.46853 c -0.208809,0.69604 -0.570747,1.22502 -1.113654,1.22502 -0.320174,0 -0.41762,-0.29233 -0.41762,-0.61251 0,-0.11136 0.01393,-0.23665 0.04176,-0.34801 l 1.002289,-4.73303 z m 0.348016,8.74218 c 0,-0.75172 0.668193,-1.15542 1.545196,-1.44775 l -0.167048,0.82132 c -0.180969,0.82132 -0.542907,1.08581 -0.821321,1.08581 -0.306254,0 -0.556827,-0.26449 -0.556827,-0.45938 z" />
      <path
         style="color:#000000;font-size:1.22231px;font-family:Dunkin;-inkscape-font-specification:'Lobster Two, Normal';fill:#3c629e;stroke-width:0.2151;-inkscape-stroke:none"
         d="m 52.719086,178.72922 c -0.0061,0.0257 -0.0086,0.0489 -0.0086,0.0697 0,0.0978 0.05867,0.15646 0.171124,0.15646 0.259129,0 0.334912,-0.27013 0.334912,-0.41314 0,-0.15524 -0.05867,-0.21146 -0.144232,-0.21146 -0.02445,0 -0.05011,0.006 -0.10023,0.0367 l 0.05867,-0.27502 -0.180902,0.0244 z m 0.374027,-0.1919 c 0,0.12834 -0.06356,0.29946 -0.14301,0.29946 -0.044,0 -0.06478,-0.0208 -0.06478,-0.0562 0,-0.009 0.0012,-0.0183 0.0037,-0.0281 l 0.06723,-0.31046 c 0.01345,-0.0159 0.055,-0.022 0.07212,-0.022 0.044,0 0.06478,0.0574 0.06478,0.11734 z"
         id="path13069" />
      <path
         style="color:#000000;font-size:1.22231px;font-family:Dunkin;-inkscape-font-specification:'Lobster Two, Normal';fill:#3c629e;stroke-width:0.2151;-inkscape-stroke:none"
         d="m 53.344907,178.33686 -0.08312,0.39236 c -0.0061,0.0293 -0.0098,0.0562 -0.0098,0.0795 0,0.10267 0.05745,0.14668 0.130788,0.14668 0.04156,0 0.09656,-0.011 0.149121,-0.0709 l -0.01222,0.0538 c -0.116119,0.0342 -0.211459,0.0697 -0.211459,0.18335 0,0.0795 0.06967,0.13201 0.144232,0.13201 0.08067,0 0.185791,-0.033 0.222461,-0.20779 l 0.149121,-0.70894 h -0.177234 l -0.08312,0.39236 c -0.01833,0.0611 -0.05011,0.10756 -0.09778,0.10756 -0.02811,0 -0.03667,-0.0257 -0.03667,-0.0538 0,-0.01 0.0012,-0.0208 0.0037,-0.0306 l 0.08801,-0.41558 z m 0.03056,0.76761 c 0,-0.066 0.05867,-0.10145 0.135676,-0.12712 l -0.01467,0.0721 c -0.01589,0.0721 -0.04767,0.0953 -0.07212,0.0953 -0.02689,0 -0.04889,-0.0232 -0.04889,-0.0403 z"
         id="path13071" />
      <path
         style="color:#000000;font-size:1.22231px;font-family:Dunkin;-inkscape-font-specification:'Lobster Two, Normal';fill:#3c629e;stroke-width:0.2151;-inkscape-stroke:none"
         d="m 54.438871,178.17062 -0.166234,0.77739 h 0.176013 l 0.0098,-0.0489 c 0.05256,0.0452 0.102674,0.0648 0.149122,0.0648 0.180902,0 0.33858,-0.30435 0.33858,-0.57326 0,-0.20168 -0.08923,-0.35936 -0.331246,-0.35936 -0.240795,0 -0.44981,0.15523 -0.44981,0.32269 0,0.0831 0.05012,0.11368 0.130787,0.11368 -0.0037,-0.011 -0.01711,-0.0257 -0.01711,-0.0831 0,-0.18579 0.14301,-0.29702 0.310466,-0.29702 0.127121,0 0.188236,0.0636 0.188236,0.2469 0,0.22246 -0.08923,0.52193 -0.234683,0.52193 -0.02322,0 -0.04645,-0.007 -0.06967,-0.0245 l 0.146677,-0.68571 z"
         id="path13073" />
      <path
         style="color:#000000;font-size:1.22231px;font-family:Dunkin;-inkscape-font-specification:'Lobster Two, Normal';fill:#3c629e;stroke-width:0.2151;-inkscape-stroke:none"
         d="m 55.392271,178.33686 -0.01222,0.0574 c -0.0086,-0.0562 -0.05989,-0.0636 -0.10023,-0.0636 -0.212682,0 -0.314133,0.26279 -0.314133,0.42781 0,0.14545 0.07945,0.19679 0.162567,0.19679 0.08678,0 0.145455,-0.0575 0.182124,-0.11368 0.0098,0.0697 0.05378,0.10634 0.119786,0.10634 0.066,0 0.176013,-0.0196 0.245685,-0.21879 h -0.05134 c -0.01834,0.0611 -0.05134,0.10756 -0.09901,0.10756 -0.03422,0 -0.05011,-0.011 -0.05011,-0.0452 0,-0.011 0.0012,-0.0232 0.0049,-0.0391 l 0.08923,-0.41558 z m -0.07456,0.0697 c 0.03789,0 0.04889,0.0318 0.05012,0.0464 l -0.05867,0.27624 c -0.01467,0.0709 -0.066,0.10756 -0.101452,0.10756 -0.022,0 -0.06112,-0.001 -0.06112,-0.0953 0,-0.11489 0.06723,-0.33491 0.171123,-0.33491 z"
         id="path13075" />
      <path
         style="color:#000000;font-size:1.22231px;font-family:Dunkin;-inkscape-font-specification:'Lobster Two, Normal';fill:#3c629e;stroke-width:0.2151;-inkscape-stroke:none"
         d="m 56.035205,178.31241 c -0.05134,0 -0.07578,0.0281 -0.07578,0.066 0,0.0269 0.01467,0.0623 0.044,0.0623 0.0098,0 0.03545,-0.004 0.03911,-0.0122 0,0.13446 -0.09167,0.40825 -0.21146,0.40825 -0.02934,0 -0.04156,-0.0159 -0.04156,-0.0403 0,-0.011 0.0024,-0.0269 0.0061,-0.044 l 0.08801,-0.41558 h -0.176012 l -0.08801,0.41558 c -0.0049,0.0232 -0.0061,0.0452 -0.0061,0.0587 0,0.0966 0.05745,0.14424 0.150344,0.14424 0.249351,0 0.348358,-0.34103 0.348358,-0.5366 0,-0.0538 -0.01833,-0.10634 -0.077,-0.10634 z"
         id="path13077" />
      <path
         style="color:#000000;font-size:1.22231px;font-family:Dunkin;-inkscape-font-specification:'Lobster Two, Normal';fill:#3c629e;stroke-width:0.2151;-inkscape-stroke:none"
         d="m 56.448345,178.33075 c -0.251796,0 -0.334913,0.29091 -0.334913,0.43147 0,0.13935 0.08189,0.19313 0.19557,0.19313 0.154011,0 0.279909,-0.14912 0.293354,-0.38625 0.06356,-0.0367 0.09901,-0.11123 0.123454,-0.16257 H 56.6867 c -0.01222,0.022 -0.04278,0.0733 -0.08312,0.0843 -0.0086,-0.10634 -0.05989,-0.16012 -0.155234,-0.16012 z m -0.09045,0.5097 c -0.04645,0 -0.06234,-0.0183 -0.06234,-0.099 0,-0.11978 0.07578,-0.33735 0.162568,-0.33735 0.03056,0 0.04278,0.0171 0.04645,0.0648 -0.022,0.009 -0.03789,0.0306 -0.03789,0.0648 0,0.0318 0.011,0.0501 0.033,0.0562 -0.01956,0.14301 -0.0819,0.25057 -0.141788,0.25057 z"
         id="path13079" />
      <path
         style="color:#000000;font-size:1.22231px;font-family:Dunkin;-inkscape-font-specification:'Lobster Two, Normal';fill:#3c629e;stroke-width:0.2151;-inkscape-stroke:none"
         d="m 57.306405,178.17062 -0.166235,0.77739 h 0.176013 l 0.0098,-0.0489 c 0.05256,0.0452 0.102674,0.0648 0.149121,0.0648 0.180902,0 0.33858,-0.30435 0.33858,-0.57326 0,-0.20168 -0.08923,-0.35936 -0.331246,-0.35936 -0.240795,0 -0.44981,0.15523 -0.44981,0.32269 0,0.0831 0.05011,0.11368 0.130787,0.11368 -0.0037,-0.011 -0.01711,-0.0257 -0.01711,-0.0831 0,-0.18579 0.14301,-0.29702 0.310467,-0.29702 0.12712,0 0.188235,0.0636 0.188235,0.2469 0,0.22246 -0.08923,0.52193 -0.234683,0.52193 -0.02322,0 -0.04645,-0.007 -0.06967,-0.0245 l 0.146677,-0.68571 z"
         id="path13081" />
      <path
         style="color:#000000;font-size:1.22231px;font-family:Dunkin;-inkscape-font-specification:'Lobster Two, Normal';fill:#3c629e;stroke-width:0.2151;-inkscape-stroke:none"
         d="m 58.259804,178.33686 -0.01222,0.0574 c -0.0086,-0.0562 -0.05989,-0.0636 -0.100229,-0.0636 -0.212682,0 -0.314134,0.26279 -0.314134,0.42781 0,0.14545 0.07945,0.19679 0.162567,0.19679 0.08678,0 0.145455,-0.0575 0.182124,-0.11368 0.0098,0.0697 0.05378,0.10634 0.119787,0.10634 0.066,0 0.176012,-0.0196 0.245684,-0.21879 h -0.05134 c -0.01834,0.0611 -0.05134,0.10756 -0.09901,0.10756 -0.03422,0 -0.05012,-0.011 -0.05012,-0.0452 0,-0.011 0.0012,-0.0232 0.0049,-0.0391 l 0.08923,-0.41558 z m -0.07456,0.0697 c 0.03789,0 0.04889,0.0318 0.05011,0.0464 l -0.05867,0.27624 c -0.01467,0.0709 -0.06601,0.10756 -0.101452,0.10756 -0.022,0 -0.06112,-0.001 -0.06112,-0.0953 0,-0.11489 0.06723,-0.33491 0.171123,-0.33491 z"
         id="path13083" />
      <path
         style="color:#000000;font-size:1.22231px;font-family:Dunkin;-inkscape-font-specification:'Lobster Two, Normal';fill:#3c629e;stroke-width:0.2151;-inkscape-stroke:none"
         d="m 58.902738,178.31241 c -0.05134,0 -0.07578,0.0281 -0.07578,0.066 0,0.0269 0.01467,0.0623 0.044,0.0623 0.0098,0 0.03545,-0.004 0.03911,-0.0122 0,0.13446 -0.09167,0.40825 -0.21146,0.40825 -0.02933,0 -0.04156,-0.0159 -0.04156,-0.0403 0,-0.011 0.0024,-0.0269 0.0061,-0.044 l 0.08801,-0.41558 h -0.176012 l -0.08801,0.41558 c -0.0049,0.0232 -0.0061,0.0452 -0.0061,0.0587 0,0.0966 0.05745,0.14424 0.150344,0.14424 0.249351,0 0.348358,-0.34103 0.348358,-0.5366 0,-0.0538 -0.01833,-0.10634 -0.077,-0.10634 z"
         id="path13085" />
      <path
         style="color:#000000;font-size:1.22231px;font-family:Dunkin;-inkscape-font-specification:'Lobster Two, Normal';fill:#3c629e;stroke-width:0.2151;-inkscape-stroke:none"
         d="m 59.667903,178.32341 c -0.06845,0.11857 -0.134454,0.18824 -0.195569,0.19435 -0.0024,-0.12468 -0.05378,-0.18701 -0.156456,-0.18701 -0.251796,0 -0.334913,0.29091 -0.334913,0.43147 0,0.13935 0.0819,0.19313 0.19557,0.19313 0.151566,0 0.27502,-0.14424 0.293354,-0.37525 0.07456,-0.0232 0.14301,-0.0782 0.201681,-0.16746 0.01345,0.22613 0.02689,0.26402 0.02689,0.33247 0,0.0856 -0.02322,0.11367 -0.077,0.11367 -0.04645,0 -0.07089,-0.0342 -0.07089,-0.0917 0.0061,0.0122 0.02078,0.0159 0.033,0.0159 0.03178,0 0.05867,-0.0257 0.05867,-0.055 0,-0.0354 -0.022,-0.0513 -0.06356,-0.0513 -0.04278,0 -0.08801,0.044 -0.08801,0.11612 0,0.0746 0.02445,0.16257 0.169902,0.16257 0.066,0 0.138121,-0.022 0.179679,-0.0831 0.05256,-0.033 0.112453,-0.077 0.169901,-0.14301 h -0.05134 c -0.02322,0.0183 -0.05378,0.0416 -0.08678,0.0599 0.0024,-0.0134 0.0037,-0.0293 0.0037,-0.0452 0,-0.0807 -0.01222,-0.12834 -0.02689,-0.44492 z m -0.442476,0.51704 c -0.04645,0 -0.06234,-0.0183 -0.06234,-0.099 0,-0.11978 0.07578,-0.33735 0.162568,-0.33735 0.03056,0 0.044,0.0171 0.04645,0.066 -0.022,0.009 -0.03789,0.0306 -0.03789,0.0648 0,0.0318 0.011,0.0501 0.033,0.0562 -0.01956,0.14301 -0.0819,0.24935 -0.141788,0.24935 z"
         id="path13087" />
      <path
         style="color:#000000;font-size:1.22231px;font-family:Dunkin;-inkscape-font-specification:'Lobster Two, Normal';fill:#3c629e;stroke-width:0.2151;-inkscape-stroke:none"
         d="m 60.414734,178.33686 -0.235906,0.18579 0.09167,-0.43025 -0.180901,0.0244 -0.177235,0.83117 h 0.176012 l 0.06356,-0.30191 c 0.03423,-0.0281 0.06234,-0.0452 0.09045,-0.0452 0.03178,0 0.044,0.0232 0.044,0.0587 0,0.0513 -0.022,0.10023 -0.022,0.15645 0,0.0892 0.05378,0.13935 0.154011,0.13935 0.05623,0 0.155233,-0.0208 0.224905,-0.22613 h -0.05134 c -0.02689,0.0636 -0.04889,0.10756 -0.102674,0.10756 -0.03789,0 -0.04767,-0.0208 -0.04767,-0.0452 0,-0.0477 0.02445,-0.0941 0.02445,-0.14668 0,-0.0782 -0.044,-0.14301 -0.134454,-0.14301 -0.01345,0 -0.02689,0.002 -0.04034,0.005 l 0.244462,-0.1699 z"
         id="path13089" />
      <path
         style="color:#000000;font-size:1.22231px;font-family:Dunkin;-inkscape-font-specification:'Lobster Two, Normal';fill:#3c629e;stroke-width:0.2151;-inkscape-stroke:none"
         d="m 60.675085,178.33686 -0.08312,0.39236 c -0.0061,0.0293 -0.0098,0.0562 -0.0098,0.0795 0,0.10267 0.05745,0.14668 0.130787,0.14668 0.04156,0 0.09656,-0.011 0.149122,-0.0709 l -0.01222,0.0538 c -0.11612,0.0342 -0.21146,0.0697 -0.21146,0.18335 0,0.0795 0.06967,0.13201 0.144233,0.13201 0.08067,0 0.185791,-0.033 0.22246,-0.20779 l 0.149122,-0.70894 h -0.177235 l -0.08312,0.39236 c -0.01834,0.0611 -0.05011,0.10756 -0.09779,0.10756 -0.02811,0 -0.03667,-0.0257 -0.03667,-0.0538 0,-0.01 0.0012,-0.0208 0.0037,-0.0306 l 0.08801,-0.41558 z m 0.03056,0.76761 c 0,-0.066 0.05867,-0.10145 0.135676,-0.12712 l -0.01467,0.0721 c -0.01589,0.0721 -0.04767,0.0953 -0.07212,0.0953 -0.02689,0 -0.04889,-0.0232 -0.04889,-0.0403 z"
         id="path13091" />
      <path
         id="path883"
         style="font-style:normal;font-variant:normal;font-weight:normal;font-stretch:normal;font-size:28.1463px;line-height:1.25;font-family:'Lobster Two';-inkscape-font-specification:'Lobster Two, Normal';font-variant-ligatures:normal;font-variant-caps:normal;font-variant-numeric:normal;font-variant-east-asian:normal;fill:#3c629e;fill-opacity:1;stroke:none;stroke-width:0.104367"
         d="m 45.397013,176.16877 c 0.0501,0.0334 0.121066,0.0501 0.166987,0.0501 0.121066,0 0.22126,-0.14611 0.22126,-0.35067 0,-0.17951 -0.09184,-0.36737 -0.463391,-0.36737 -0.847462,0 -1.122992,0.99357 -1.122992,1.46949 0,0.47174 0.258831,0.66377 0.651251,0.66377 0.555234,0 0.910083,-0.38824 1.148041,-0.77231 h -0.14194 c -0.208734,0.23795 -0.409119,0.42164 -0.73892,0.42164 -0.200385,0 -0.317276,-0.071 -0.317276,-0.35485 0,-0.45504 0.263006,-1.20649 0.551058,-1.20649 0.07932,0 0.116892,0.0584 0.116892,0.15447 0,0.071 -0.02922,0.20038 -0.07097,0.29223 z" />
      <path
         id="path885"
         style="font-style:normal;font-variant:normal;font-weight:normal;font-stretch:normal;font-size:28.1463px;line-height:1.25;font-family:'Lobster Two';-inkscape-font-specification:'Lobster Two, Normal';font-variant-ligatures:normal;font-variant-caps:normal;font-variant-numeric:normal;font-variant-east-asian:normal;fill:#3c629e;fill-opacity:1;stroke:none;stroke-width:0.104367"
         d="m 46.941644,175.50082 c -0.859987,0 -1.143866,0.99357 -1.143866,1.47366 0,0.47592 0.279704,0.6596 0.667951,0.6596 0.513487,0 0.93513,-0.48844 1.001925,-1.26493 0.300579,-0.0501 0.576107,-0.17534 0.734746,-0.3465 l -0.03757,-0.11271 c -0.179512,0.12524 -0.450867,0.25048 -0.642902,0.25048 -0.01252,0 -0.02922,0 -0.04592,-0.004 -0.0042,-0.43417 -0.179512,-0.65543 -0.534359,-0.65543 z m -0.308928,1.74084 c -0.158638,0 -0.212909,-0.0626 -0.212909,-0.33815 0,-0.40912 0.258831,-1.15221 0.555234,-1.15221 0.104368,0 0.150289,0.0626 0.158638,0.23378 -0.07514,0.0292 -0.129416,0.10437 -0.129416,0.22126 0,0.0835 0.02505,0.15446 0.112717,0.17534 -0.06262,0.49261 -0.279704,0.85998 -0.484264,0.85998 z" />
      <path
         id="path887"
         style="font-style:normal;font-variant:normal;font-weight:normal;font-stretch:normal;font-size:28.1463px;line-height:1.25;font-family:'Lobster Two';-inkscape-font-specification:'Lobster Two, Normal';font-variant-ligatures:normal;font-variant-caps:normal;font-variant-numeric:normal;font-variant-east-asian:normal;fill:#3c629e;fill-opacity:1;stroke:none;stroke-width:0.104367"
         d="m 48.89122,176.0978 c 0,0.26718 -0.187862,0.78066 -0.187862,1.06454 0,0.23796 0.129417,0.47174 0.492615,0.47174 0.221258,0 0.542708,-0.0877 0.776492,-0.77231 h -0.175338 c -0.09184,0.21708 -0.166987,0.36737 -0.350674,0.36737 -0.125239,0 -0.166987,-0.071 -0.166987,-0.17534 0,-0.23378 0.200384,-0.73892 0.200384,-1.07707 0,-0.33397 -0.196209,-0.47174 -0.463389,-0.47174 -0.129416,0 -0.313103,0.0334 -0.488439,0.23378 l 0.04592,-0.21708 h -0.601156 l -0.442517,2.08734 h 0.601155 l 0.28388,-1.34007 c 0.06262,-0.20874 0.175336,-0.38407 0.325625,-0.38407 0.100193,0 0.150289,0.0751 0.150289,0.21291 z" />
      <path
         id="path889"
         style="font-style:normal;font-variant:normal;font-weight:normal;font-stretch:normal;font-size:28.1463px;line-height:1.25;font-family:'Lobster Two';-inkscape-font-specification:'Lobster Two, Normal';font-variant-ligatures:normal;font-variant-caps:normal;font-variant-numeric:normal;font-variant-east-asian:normal;fill:#3c629e;fill-opacity:1;stroke:none;stroke-width:0.104367"
         d="m 50.999436,176.0978 c 0,0.26718 -0.187862,0.78066 -0.187862,1.06454 0,0.23796 0.129416,0.47174 0.492614,0.47174 0.221258,0 0.542708,-0.0877 0.776492,-0.77231 h -0.175338 c -0.09184,0.21708 -0.166987,0.36737 -0.350674,0.36737 -0.125241,0 -0.166987,-0.071 -0.166987,-0.17534 0,-0.23378 0.200385,-0.73892 0.200385,-1.07707 0,-0.33397 -0.19621,-0.47174 -0.463391,-0.47174 -0.129415,0 -0.313101,0.0334 -0.488438,0.23378 l 0.04592,-0.21708 h -0.601156 l -0.442517,2.08734 h 0.601155 l 0.28388,-1.34007 c 0.06262,-0.20874 0.175336,-0.38407 0.325625,-0.38407 0.100193,0 0.15029,0.0751 0.15029,0.21291 z" />
      <path
         id="path891"
         style="font-style:normal;font-variant:normal;font-weight:normal;font-stretch:normal;font-size:28.1463px;line-height:1.25;font-family:'Lobster Two';-inkscape-font-specification:'Lobster Two, Normal';font-variant-ligatures:normal;font-variant-caps:normal;font-variant-numeric:normal;font-variant-east-asian:normal;fill:#3c629e;fill-opacity:1;stroke:none;stroke-width:0.104367"
         d="m 52.468922,176.93274 c 0,-0.0501 0.0042,-0.10855 0.0084,-0.16699 0.500963,-0.0292 0.960178,-0.39242 0.960178,-0.86416 0,-0.20874 -0.08767,-0.40077 -0.459215,-0.40077 -0.855813,0 -1.127166,0.99357 -1.127166,1.46949 0,0.47174 0.258831,0.66377 0.651251,0.66377 0.555234,0 0.910082,-0.38824 1.148039,-0.77231 h -0.141938 c -0.208736,0.23795 -0.40912,0.42164 -0.738921,0.42164 -0.200385,0 -0.300577,-0.0668 -0.300577,-0.35067 z m 0.647076,-1.0395 c 0,0.33815 -0.279704,0.65125 -0.605329,0.67212 0.08767,-0.40912 0.292228,-0.84329 0.500963,-0.84329 0.07932,0 0.104366,0.0668 0.104366,0.17117 z" />
      <path
         id="path893"
         style="font-style:normal;font-variant:normal;font-weight:normal;font-stretch:normal;font-size:28.1463px;line-height:1.25;font-family:'Lobster Two';-inkscape-font-specification:'Lobster Two, Normal';font-variant-ligatures:normal;font-variant-caps:normal;font-variant-numeric:normal;font-variant-east-asian:normal;fill:#3c629e;fill-opacity:1;stroke:none;stroke-width:0.104367"
         d="m 54.65228,176.16877 c 0.0501,0.0334 0.121065,0.0501 0.166987,0.0501 0.121067,0 0.221259,-0.14611 0.221259,-0.35067 0,-0.17951 -0.09184,-0.36737 -0.46339,-0.36737 -0.847462,0 -1.122993,0.99357 -1.122993,1.46949 0,0.47174 0.258831,0.66377 0.651253,0.66377 0.555233,0 0.910082,-0.38824 1.148039,-0.77231 h -0.14194 c -0.208734,0.23795 -0.409118,0.42164 -0.738919,0.42164 -0.200385,0 -0.317277,-0.071 -0.317277,-0.35485 0,-0.45504 0.263006,-1.20649 0.551059,-1.20649 0.07932,0 0.116892,0.0584 0.116892,0.15447 0,0.071 -0.02922,0.20038 -0.07097,0.29223 z" />
      <path
         id="path895"
         style="font-style:normal;font-variant:normal;font-weight:normal;font-stretch:normal;font-size:28.1463px;line-height:1.25;font-family:'Lobster Two';-inkscape-font-specification:'Lobster Two, Normal';font-variant-ligatures:normal;font-variant-caps:normal;font-variant-numeric:normal;font-variant-east-asian:normal;fill:#3c629e;fill-opacity:1;stroke:none;stroke-width:0.104367"
         d="m 55.520611,174.94558 -0.125241,0.57611 h -0.137765 l -0.0334,0.16699 h 0.137765 l -0.250481,1.17309 c -0.02087,0.10019 -0.0334,0.19203 -0.0334,0.27135 0,0.35067 0.196211,0.50096 0.446693,0.50096 0.225433,0 0.638727,-0.0918 0.876684,-0.77231 h -0.175338 c -0.06262,0.20873 -0.212909,0.36737 -0.375721,0.36737 -0.116891,0 -0.171162,-0.0376 -0.171162,-0.15447 0,-0.0376 0.0042,-0.0793 0.0167,-0.13359 l 0.267181,-1.2524 h 0.250482 l 0.0334,-0.16699 h -0.250482 l 0.141939,-0.6596 z" />
      <path
         id="path897"
         style="font-style:normal;font-variant:normal;font-weight:normal;font-stretch:normal;font-size:28.1463px;line-height:1.25;font-family:'Lobster Two';-inkscape-font-specification:'Lobster Two, Normal';font-variant-ligatures:normal;font-variant-caps:normal;font-variant-numeric:normal;font-variant-east-asian:normal;fill:#3c629e;fill-opacity:1;stroke:none;stroke-width:0.104367"
         d="m 56.593499,174.96646 c 0,0.18368 0.146114,0.3298 0.3298,0.3298 0.183687,0 0.333975,-0.14612 0.333975,-0.3298 0,-0.18369 -0.150288,-0.33398 -0.333975,-0.33398 -0.183686,0 -0.3298,0.15029 -0.3298,0.33398 z m -0.08349,0.55523 -0.28388,1.34008 c -0.02087,0.10019 -0.0334,0.19203 -0.0334,0.27135 0,0.35067 0.19621,0.50096 0.446691,0.50096 0.225433,0 0.638727,-0.0918 0.876685,-0.77231 h -0.175337 c -0.06262,0.20873 -0.212909,0.36737 -0.375722,0.36737 -0.116891,0 -0.171163,-0.0376 -0.171163,-0.15447 0,-0.0376 0.0042,-0.0793 0.0167,-0.13359 l 0.300577,-1.41939 z" />
      <path
         id="path899"
         style="font-style:normal;font-variant:normal;font-weight:normal;font-stretch:normal;font-size:28.1463px;line-height:1.25;font-family:'Lobster Two';-inkscape-font-specification:'Lobster Two, Normal';font-variant-ligatures:normal;font-variant-caps:normal;font-variant-numeric:normal;font-variant-east-asian:normal;fill:#3c629e;fill-opacity:1;stroke:none;stroke-width:0.104367"
         d="m 58.42618,175.50082 c -0.859986,0 -1.143865,0.99357 -1.143865,1.47366 0,0.47592 0.279705,0.6596 0.667951,0.6596 0.513487,0 0.93513,-0.48844 1.001925,-1.26493 0.300578,-0.0501 0.576107,-0.17534 0.734745,-0.3465 l -0.03757,-0.11271 c -0.179513,0.12524 -0.450868,0.25048 -0.642904,0.25048 -0.01252,0 -0.02922,0 -0.04592,-0.004 -0.0042,-0.43417 -0.179513,-0.65543 -0.534361,-0.65543 z m -0.308927,1.74084 c -0.158638,0 -0.212909,-0.0626 -0.212909,-0.33815 0,-0.40912 0.258831,-1.15221 0.555234,-1.15221 0.104368,0 0.150289,0.0626 0.158638,0.23378 -0.07514,0.0292 -0.129416,0.10437 -0.129416,0.22126 0,0.0835 0.02505,0.15446 0.112717,0.17534 -0.06262,0.49261 -0.279704,0.85998 -0.484264,0.85998 z" />
      <path
         id="path901"
         style="font-style:normal;font-variant:normal;font-weight:normal;font-stretch:normal;font-size:28.1463px;line-height:1.25;font-family:'Lobster Two';-inkscape-font-specification:'Lobster Two, Normal';font-variant-ligatures:normal;font-variant-caps:normal;font-variant-numeric:normal;font-variant-east-asian:normal;fill:#3c629e;fill-opacity:1;stroke:none;stroke-width:0.104367"
         d="m 60.375757,176.0978 c 0,0.26718 -0.187862,0.78066 -0.187862,1.06454 0,0.23796 0.100193,0.47174 0.421644,0.47174 0.221258,0 0.421645,-0.12941 0.459216,-0.42999 -0.02505,0.0167 -0.0668,0.025 -0.137765,0.025 -0.12524,0 -0.166987,-0.071 -0.166987,-0.17534 0,-0.23378 0.200386,-0.73892 0.200386,-1.07707 0,-0.33397 -0.196211,-0.47174 -0.463391,-0.47174 -0.129416,0 -0.313103,0.0334 -0.488439,0.23378 l 0.04592,-0.21708 h -0.601156 l -0.442517,2.08734 h 0.601155 l 0.283879,-1.34007 c 0.06262,-0.20874 0.175337,-0.38407 0.325626,-0.38407 0.100192,0 0.150289,0.0751 0.150289,0.21291 z" />
    </g>
  </g>
</svg>
